<svg xmlns="http://www.w3.org/2000/svg" viewBox="0 0 1900 1900" width="1900" height="1900"><defs><linearGradient id="gb" x1="0" y1="0" x2="0.85" y2="1"><stop offset="0" stop-color="#2a1560"/><stop offset="0.55" stop-color="#1d0945"/><stop offset="1" stop-color="#130230"/></linearGradient><linearGradient id="gf" x1="0" y1="0" x2="0.55" y2="1"><stop offset="0" stop-color="#6a3fc4"/><stop offset="0.5" stop-color="#46219a"/><stop offset="1" stop-color="#2c1568"/></linearGradient></defs><rect width="1900" height="1900" rx="360" fill="#F4F2FB"/><g transform="translate(320.3,280.0) scale(0.3837)"><g transform="translate(0.000000,3492.000000) scale(0.100000,-0.100000)" fill="url(#gb)"><path d="M644 34308 c-12 -5 -27 -21 -33 -34 -15 -34 -16 -33586 -1 -33615 6
-11 21 -19 35 -19 19 0 740 716 3349 3324 2462 2462 3337 3331 3374 3351 37
20 57 40 77 77 44 80 698 729 774 768 83 42 379 337 421 420 42 84 455 497
539 540 74 37 375 332 416 408 19 36 40 57 74 76 66 36 138 111 172 177 38 76
223 260 299 299 77 39 261 223 300 299 34 68 112 146 180 181 68 35 146 113
180 181 39 76 223 260 301 299 72 37 373 334 414 408 19 36 40 57 74 76 61 33
135 107 167 166 19 35 39 55 76 75 71 39 1804 1771 1843 1843 20 37 40 57 77
77 71 39 1564 1532 1603 1603 19 36 40 57 74 76 61 33 135 107 167 166 18 34
40 55 73 74 25 14 89 66 141 116 52 50 118 103 145 117 28 14 84 56 125 93 41
37 95 77 120 90 25 12 65 39 90 60 25 21 65 48 90 60 25 12 65 40 90 61 54 44
322 179 357 179 13 0 39 6 57 14 37 16 2503 2474 2537 2529 24 41 24 93 0 134
-18 29 -2358 2376 -2476 2483 -76 69 -98 68 -176 -7 -33 -31 -71 -78 -85 -103
-15 -28 -41 -56 -65 -70 -23 -14 -49 -42 -60 -62 -13 -26 -34 -45 -68 -62 -64
-33 -369 -335 -406 -404 -20 -37 -40 -57 -77 -77 -35 -19 -289 -266 -890 -867
-524 -523 -854 -846 -874 -854 -44 -18 -5637 -21 -5677 -3 -14 6 -30 22 -36
36 -16 34 -16 7312 0 7346 6 14 22 30 36 36 17 8 1189 11 4304 11 4281 0 4281
0 4349 -30 68 -30 68 -30 300 -30 232 0 232 0 300 -30 63 -27 78 -30 180 -30
102 0 117 -3 180 -30 58 -25 81 -30 150 -30 69 0 92 -5 150 -30 47 -21 84 -30
120 -30 36 0 73 -9 120 -30 38 -16 78 -30 90 -30 12 0 52 -13 90 -30 47 -21
84 -30 120 -30 36 0 73 -9 120 -30 38 -16 79 -30 92 -30 13 0 80 -27 148 -60
68 -33 136 -60 151 -60 14 0 108 -40 209 -90 101 -49 195 -90 211 -90 37 0
422 -193 479 -240 25 -20 92 -61 150 -90 58 -29 125 -69 150 -90 25 -21 92
-61 150 -90 73 -37 128 -73 180 -120 41 -37 95 -78 120 -90 25 -12 79 -53 120
-90 41 -37 98 -79 125 -93 28 -14 93 -67 145 -117 55 -53 119 -103 152 -121
84 -43 675 -634 717 -717 19 -38 69 -98 151 -182 78 -80 132 -145 150 -180 16
-30 56 -84 90 -120 34 -36 73 -87 87 -115 14 -27 42 -70 63 -95 21 -25 48 -65
60 -90 12 -25 40 -65 60 -90 21 -25 61 -92 90 -150 29 -58 69 -125 90 -150 48
-57 420 -800 420 -838 0 -15 27 -84 60 -152 33 -68 60 -137 60 -152 0 -16 13
-55 30 -88 16 -33 30 -73 30 -90 0 -17 14 -57 30 -90 17 -33 30 -73 30 -90 0
-17 13 -57 30 -90 23 -47 30 -73 30 -120 0 -47 7 -73 30 -120 23 -47 30 -73
30 -120 0 -47 7 -73 30 -120 27 -53 30 -69 30 -150 0 -81 3 -97 30 -150 28
-56 30 -66 30 -180 0 -114 2 -124 30 -180 30 -59 30 -59 30 -330 0 -271 0
-271 30 -330 30 -59 30 -59 30 -330 0 -271 0 -271 -30 -330 -30 -59 -30 -59
-30 -330 0 -271 0 -271 -30 -330 -28 -56 -30 -66 -30 -180 0 -114 -2 -124 -30
-180 -27 -53 -30 -69 -30 -150 0 -81 -3 -97 -30 -150 -23 -47 -30 -73 -30
-120 0 -47 -7 -73 -30 -120 -23 -47 -30 -73 -30 -120 0 -47 -7 -73 -30 -120
-17 -33 -30 -73 -30 -90 0 -17 -14 -57 -30 -90 -17 -33 -30 -72 -30 -88 0 -15
-27 -84 -60 -152 -33 -68 -60 -136 -60 -150 0 -14 -27 -82 -60 -150 -33 -68
-60 -136 -60 -151 0 -37 -133 -303 -179 -359 -49 -58 -61 -82 -61 -120 0 -38
-12 -61 -60 -120 -21 -25 -61 -92 -90 -150 -29 -58 -69 -125 -90 -150 -20 -25
-48 -65 -60 -90 -12 -25 -39 -65 -60 -90 -21 -25 -49 -67 -63 -95 -14 -27 -53
-79 -87 -115 -34 -36 -74 -90 -90 -120 -16 -30 -56 -84 -90 -120 -34 -36 -75
-91 -91 -122 -43 -84 -992 -1034 -1077 -1077 -33 -18 -97 -68 -152 -121 -52
-50 -117 -103 -145 -117 -27 -14 -70 -42 -95 -63 -25 -21 -65 -48 -90 -60 -25
-12 -65 -39 -90 -60 -25 -21 -65 -48 -90 -60 -25 -12 -65 -40 -90 -60 -25 -21
-119 -75 -210 -120 -91 -45 -185 -100 -210 -120 -57 -47 -442 -240 -479 -240
-16 0 -110 -40 -211 -90 -101 -49 -194 -90 -207 -90 -14 0 -55 -14 -93 -30
-38 -16 -78 -30 -90 -30 -12 0 -52 -13 -90 -30 -38 -16 -78 -30 -90 -30 -12 0
-52 -14 -90 -30 -38 -17 -78 -30 -90 -30 -12 0 -52 -14 -90 -30 -47 -21 -84
-30 -120 -30 -36 0 -73 -9 -120 -30 -47 -21 -84 -30 -120 -30 -36 0 -73 -9
-120 -30 -63 -27 -78 -30 -180 -30 -102 0 -117 -3 -180 -30 -65 -29 -74 -30
-210 -30 -136 0 -145 -1 -210 -30 -68 -30 -68 -30 -329 -30 -199 0 -269 -3
-294 -14 -20 -8 -248 -228 -576 -555 -403 -402 -555 -548 -592 -566 -34 -17
-55 -37 -68 -63 -11 -20 -37 -48 -60 -62 -24 -15 -50 -42 -65 -71 -33 -60
-108 -134 -168 -165 -32 -16 -54 -36 -67 -62 -11 -20 -37 -48 -60 -62 -25 -15
-50 -43 -67 -73 -37 -69 -814 -845 -882 -882 -37 -20 -57 -40 -77 -77 -40 -73
-4531 -4563 -4603 -4603 -37 -20 -57 -40 -77 -76 -31 -58 -336 -369 -386 -394
-77 -39 -96 -76 -58 -111 21 -19 111 -19 4461 -22 4439 -2 4439 -2 4508 28 68
30 68 30 300 30 232 0 232 0 300 30 63 27 78 30 180 30 102 0 117 3 180 30 65
29 74 30 210 30 136 0 145 1 210 30 58 25 81 30 150 30 69 0 92 5 150 30 47
21 84 30 120 30 36 0 73 9 120 30 47 21 84 30 120 30 36 0 73 9 120 30 47 21
84 30 120 30 36 0 73 9 120 30 47 21 84 30 120 30 36 0 73 9 120 30 47 21 84
30 120 30 36 0 73 9 120 30 38 16 78 30 90 30 12 0 52 13 90 30 47 21 84 30
120 30 36 0 73 9 120 30 38 17 79 30 92 30 13 0 80 27 148 60 68 33 135 60
148 60 13 0 54 13 92 30 38 16 78 30 90 30 12 0 52 14 90 30 38 17 79 30 92
30 13 0 80 27 148 60 68 33 136 60 151 60 14 0 108 41 209 90 101 50 195 90
211 90 15 0 159 66 329 150 166 82 314 150 329 150 38 0 185 73 240 119 26 22
172 102 331 181 157 78 305 159 330 180 25 21 92 61 150 90 58 29 125 69 150
90 25 21 92 61 150 90 58 29 125 69 150 90 25 20 65 48 90 60 25 12 65 39 90
60 25 21 65 48 90 60 25 12 65 39 90 60 25 21 65 48 90 60 25 12 65 39 90 60
25 21 65 48 90 60 25 13 79 53 120 90 41 37 95 78 120 90 25 12 79 53 120 90
41 37 98 79 125 93 28 14 93 67 145 117 52 50 120 104 150 120 34 18 102 74
180 150 82 80 145 132 181 150 45 23 142 114 478 449 285 284 437 429 470 447
36 19 56 39 75 75 17 31 124 146 297 320 208 209 277 285 299 328 18 37 69 98
150 181 79 81 132 144 150 180 18 36 71 99 150 180 78 80 132 145 150 180 16
30 56 84 90 120 34 36 73 88 87 115 14 28 42 70 63 95 21 25 49 68 63 95 14
28 53 79 87 115 34 36 73 88 87 115 14 28 42 70 63 95 21 25 48 65 60 90 12
25 39 65 60 90 21 25 48 65 60 90 12 25 40 65 60 90 21 25 61 92 90 150 29 58
69 125 90 150 21 25 61 92 90 150 29 58 69 125 90 150 21 25 88 146 150 270
62 124 130 245 150 270 48 57 240 442 240 480 0 16 63 155 150 330 84 170 150
314 150 329 0 16 40 110 90 211 50 102 90 196 90 212 0 16 14 55 30 88 17 33
30 73 30 90 0 17 14 57 30 90 17 33 30 72 30 88 0 16 27 84 60 151 53 108 60
129 60 182 0 46 7 73 30 119 16 33 30 73 30 90 0 17 13 57 30 90 16 33 30 73
30 90 0 17 13 57 30 90 16 33 30 73 30 90 0 17 13 57 30 90 23 47 30 73 30
120 0 47 7 73 30 120 23 47 30 73 30 120 0 47 7 73 30 120 23 47 30 73 30 120
0 47 7 73 30 120 23 47 30 73 30 120 0 47 7 73 30 120 28 56 30 66 30 180 0
114 2 124 30 180 27 53 30 69 30 150 0 81 3 97 30 150 30 59 30 59 30 240 0
181 0 181 30 240 30 59 30 59 30 270 0 211 0 211 30 270 30 59 30 59 30 570 0
511 0 511 30 570 30 59 30 59 30 300 0 241 0 241 -30 300 -30 59 -30 59 -30
570 0 511 0 511 -30 570 -30 59 -30 59 -30 270 0 211 0 211 -30 270 -29 58
-30 63 -30 210 0 147 -1 152 -30 210 -28 56 -30 66 -30 180 0 114 -2 124 -30
180 -27 53 -30 69 -30 150 0 81 -3 97 -30 150 -23 47 -30 73 -30 120 0 47 -7
73 -30 120 -23 47 -30 73 -30 120 0 47 -7 73 -30 120 -23 47 -30 73 -30 120 0
47 -7 73 -30 120 -23 47 -30 73 -30 120 0 47 -7 73 -30 120 -16 33 -30 73 -30
90 0 17 -14 57 -30 90 -23 47 -30 73 -30 120 0 47 -7 73 -30 120 -17 33 -30
73 -30 90 0 17 -14 57 -30 90 -17 33 -30 73 -30 90 0 17 -14 57 -30 90 -17 33
-30 73 -30 90 0 17 -13 57 -30 90 -16 33 -30 72 -30 88 0 15 -27 84 -60 152
-33 68 -60 136 -60 150 0 14 -27 82 -60 150 -33 68 -60 136 -60 151 0 14 -41
108 -90 209 -50 101 -90 196 -90 211 0 39 -551 1140 -600 1199 -21 25 -75 119
-120 210 -45 91 -99 185 -120 210 -21 25 -61 92 -90 150 -29 58 -69 125 -90
150 -20 25 -48 65 -60 90 -12 25 -39 65 -60 90 -21 25 -48 65 -60 90 -12 25
-39 65 -60 90 -21 25 -49 68 -63 95 -14 28 -53 79 -87 115 -34 36 -73 88 -87
115 -14 28 -42 70 -63 95 -21 25 -49 68 -63 95 -14 28 -53 79 -87 115 -34 36
-74 90 -90 120 -16 30 -56 84 -90 120 -34 36 -74 90 -90 120 -18 35 -72 100
-150 180 -79 81 -132 144 -150 180 -19 38 -75 103 -180 210 -108 110 -160 171
-181 212 -43 85 -1052 1094 -1137 1137 -42 21 -105 77 -242 211 -130 128 -201
191 -240 210 -31 16 -97 69 -150 120 -52 50 -120 104 -150 120 -30 16 -98 70
-150 120 -52 50 -117 103 -145 117 -27 14 -84 56 -125 93 -41 37 -95 77 -120
90 -25 12 -65 39 -90 60 -25 21 -65 48 -90 60 -25 13 -79 53 -120 90 -41 37
-95 77 -120 90 -25 12 -65 40 -90 60 -25 21 -92 61 -150 90 -58 29 -125 69
-150 90 -25 20 -65 48 -90 60 -25 12 -65 40 -90 60 -25 21 -92 61 -150 90 -58
29 -125 69 -150 90 -25 21 -146 88 -270 150 -124 62 -245 129 -270 150 -58 48
-681 360 -719 360 -17 0 -133 52 -271 120 -133 66 -254 120 -269 120 -15 0
-83 27 -151 60 -68 33 -136 60 -150 60 -14 0 -82 27 -150 60 -68 33 -135 60
-148 60 -13 0 -54 14 -92 30 -38 17 -78 30 -90 30 -12 0 -52 14 -90 30 -38 17
-78 30 -90 30 -12 0 -52 14 -90 30 -38 17 -78 30 -90 30 -12 0 -52 14 -90 30
-38 17 -78 30 -90 30 -12 0 -52 14 -90 30 -38 17 -78 30 -90 30 -12 0 -52 14
-90 30 -47 21 -84 30 -120 30 -36 0 -73 9 -120 30 -38 17 -78 30 -90 30 -12 0
-52 14 -90 30 -47 21 -84 30 -120 30 -36 0 -73 9 -120 30 -47 21 -84 30 -120
30 -36 0 -73 9 -120 30 -58 25 -81 30 -150 30 -69 0 -92 5 -150 30 -47 21 -84
30 -120 30 -36 0 -73 9 -120 30 -63 27 -78 30 -180 30 -102 0 -117 3 -180 30
-63 27 -78 30 -180 30 -102 0 -117 3 -180 30 -67 30 -71 30 -240 30 -169 0
-173 0 -240 30 -68 30 -68 30 -270 30 -202 0 -202 0 -270 30 -68 30 -68 30
-8672 29 -5903 0 -8610 -4 -8624 -11z"/></g><g transform="translate(0.000000,3492.000000) scale(0.100000,-0.100000)" fill="url(#gf)"><path d="M671 34206 c-24 -12 -50 -34 -57 -47 -11 -20 -13 -2783 -14 -16645 0
-16621 0 -16621 31 -16668 39 -58 87 -96 122 -96 23 0 653 626 3717 3690 3215
3215 3697 3693 3748 3719 84 43 380 338 422 421 43 85 455 497 540 540 86 43
617 574 660 659 39 78 223 262 300 301 77 39 261 223 300 299 34 68 112 146
180 181 68 35 146 113 180 181 40 78 223 260 303 300 49 25 410 382 2517 2489
2000 1999 2470 2465 2512 2486 29 15 87 57 128 94 59 53 109 84 236 148 120
61 164 88 172 107 19 41 15 135 -7 171 -10 17 -517 529 -1125 1138 -929 929
-1111 1116 -1135 1164 -32 63 -62 95 -104 111 -20 8 -863 11 -2807 11 -1944 0
-2787 3 -2807 11 -46 17 -72 49 -119 141 -44 88 -44 88 -44 3690 0 3554 0
3603 -20 3635 -10 18 -1441 1454 -3179 3192 -2697 2697 -3169 3165 -3218 3190
-74 38 -147 110 -183 181 -35 70 -108 143 -180 180 -74 38 -203 166 -239 239
-36 71 -109 144 -181 181 -76 39 -261 224 -300 299 -15 31 -56 85 -90 121 -34
36 -73 87 -85 113 -47 100 -89 117 -174 73z"/></g></g></svg>